PathFileType	4	(X/Y/Z)	static_1_OpenSim.trc.	Data\Walking\Mocap\Sub011\Generated_files\Files_W_HJCs																																																																																																																																																															
DataRate	CameraRate	NumFrames	NumMarkers	Units	OrigDataRate	OrigDataStartFrame	OrigNumFrames																																																																																																																																																												
100	100	4	54	mm	100	123	491																																																																																																																																																												
Frame#	Time	R.ASIS			R.PSIS			S2			L.PSIS			L.ASIS			R.TH1			R.TH2			R.TH3			R.Knee			R.SH1			R.SH2			R.SH3			R.SH4			R.Ankle			R.MAnkle			R.Heel			R.LatHeel			R.PT			R.MT5			R.Toe			R.MT1			R.ProxMet1			R.ST			R.MedHeel			L.TH1			L.TH2			L.TH3			L.TH4			L.Knee			L.SH1			L.SH2			L.SH3			L.Ankle			L.MAnkle			L.Heel			L.LatHeel			L.PT			L.MT5			L.Toe			L.MT1			L.ProxMet1			L.ST			L.MedHeel			T.Med			T.Lat			T.Bot			R.Acr			L.Acr			C7			Clav			R.MKnee			L.MKnee			R_HJC			L_HJC		
		X1	Y1	Z1	X2	Y2	Z2	X3	Y3	Z3	X4	Y4	Z4	X5	Y5	Z5	X6	Y6	Z6	X7	Y7	Z7	X8	Y8	Z8	X9	Y9	Z9	X10	Y10	Z10	X11	Y11	Z11	X12	Y12	Z12	X13	Y13	Z13	X14	Y14	Z14	X15	Y15	Z15	X16	Y16	Z16	X17	Y17	Z17	X18	Y18	Z18	X19	Y19	Z19	X20	Y20	Z20	X21	Y21	Z21	X22	Y22	Z22	X23	Y23	Z23	X24	Y24	Z24	X25	Y25	Z25	X26	Y26	Z26	X27	Y27	Z27	X28	Y28	Z28	X29	Y29	Z29	X30	Y30	Z30	X31	Y31	Z31	X32	Y32	Z32	X33	Y33	Z33	X34	Y34	Z34	X35	Y35	Z35	X36	Y36	Z36	X37	Y37	Z37	X38	Y38	Z38	X39	Y39	Z39	X40	Y40	Z40	X41	Y41	Z41	X42	Y42	Z42	X43	Y43	Z43	X44	Y44	Z44	X45	Y45	Z45	X46	Y46	Z46	X47	Y47	Z47	X48	Y48	Z48	X49	Y49	Z49	X50	Y50	Z50	X51	Y51	Z51	X52	Y52	Z52	X53	Y53	Z53	X54	Y54	Z54
																																																																																																																																																																			
123	1.22	1225.313	995.484	-432.468	1051.351	1010.129	-500.613	1050.981	992.263	-558.56	1057.706	1007.432	-609.389	1245.723	984.853	-659.849	1254.386	701.901	-417.401	1197.715	701.413	-357.103	1180.749	594.163	-375.654	1147.061	466.709	-388.685	1142.417	354.603	-380.8	1136.058	242.114	-386.994	1059.802	361.185	-378.828	1056.054	247.212	-376.911	1090.755	91.255	-406.859	1104.694	98.882	-480.734	1022.673	65.727	-450.68	1050.957	42.264	-407.001	1122.196	41.603	-389.917	1212.293	35.428	-378.731	1283.321	45.014	-432.175	1230.162	44.724	-474.377	1190.507	64.011	-472.415	1130.781	42.21	-488.071	1059.412	38.717	-485.659	1233.654	722.302	-726.802	1213.609	616.823	-707.713	1153.057	726.539	-758.481	1136.306	620.946	-730.294	1148.449	449.366	-700.011	1162.575	361.751	-697.548	1087.165	372.334	-730.099	1073.311	263.813	-725.596	1097.36	79.27	-690.99	1112.308	101.635	-612.891	1028.423	61.474	-649.799	1055.375	35.037	-691.594	1123.559	37.613	-704.964	1215.655	29.637	-716.011	1290.94	42.104	-657.815	1233.226	42.218	-618.58	1185.682	66.897	-619.006	1137.79	38.438	-606.534	1078.381	40.422	-610.896	1005.763	260.376	-490.352	1002.675	263.255	-453.205	1019.6	230.041	-463.084	1120.733	1394.583	-403.037	1153.695	1386.238	-737.279	1083.513	1423.448	-572.17	1213.938	1347.866	-560.89	1135.374	463.237	-507.093	1132.6	459.44	-597.034	1177.58	854.669	-453.15	1187.511	851.882	-641.386
124	1.23	1225.193	995.506	-432.444	1051.214	1010.113	-500.603	1050.896	992.234	-558.471	1057.628	1007.436	-609.334	1245.664	984.913	-659.744	1254.313	701.904	-417.378	1197.648	701.412	-357.08	1180.71	594.138	-375.662	1147.067	466.704	-388.7	1142.408	354.606	-380.783	1136.036	242.101	-386.987	1059.804	361.211	-378.82	1056.053	247.175	-376.868	1090.811	91.218	-406.897	1104.697	98.847	-480.74	1022.661	65.704	-450.7	1050.972	42.246	-406.987	1122.199	41.613	-389.9	1212.3	35.444	-378.736	1283.31	44.989	-432.219	1230.155	44.74	-474.348	1190.506	64.082	-472.16	1130.78	42.22	-488.064	1059.422	38.728	-485.647	1233.565	722.274	-726.764	1213.538	616.845	-707.708	1153.031	726.537	-758.42	1136.238	620.939	-730.282	1148.389	449.336	-699.993	1162.554	361.755	-697.525	1087.14	372.318	-730.053	1073.259	263.795	-725.544	1097.352	79.22	-691.025	1112.363	101.644	-612.85	1028.466	61.457	-649.723	1055.417	35.003	-691.54	1123.569	37.608	-704.917	1215.643	29.643	-716.037	1290.952	42.136	-657.834	1233.219	42.202	-618.577	1185.668	66.857	-618.993	1137.814	38.465	-606.552	1078.388	40.415	-610.94	1005.752	260.361	-490.36	1002.666	263.227	-453.177	1019.246	230.412	-462.88	1120.61	1394.57	-403.022	1153.574	1386.14	-737.312	1083.383	1423.43	-572.223	1213.793	1347.839	-560.922	1135.377	463.251	-507.029	1132.56	459.428	-596.996	1177.512	854.682	-453.1	1187.479	851.92	-641.335
125	1.24	1225.084	995.547	-432.421	1051.065	1010.087	-500.586	1050.791	992.217	-558.45	1057.523	1007.404	-609.304	1245.528	984.873	-659.734	1254.233	701.88	-417.371	1197.581	701.388	-357.062	1180.67	594.118	-375.647	1147.048	466.696	-388.663	1142.39	354.577	-380.788	1136.017	242.095	-386.98	1059.763	361.154	-378.779	1056.046	247.142	-376.867	1090.758	91.227	-406.899	1104.65	98.835	-480.78	1022.648	65.67	-450.65	1050.974	42.268	-407.024	1122.197	41.606	-389.92	1212.286	35.382	-378.755	1283.29	44.951	-432.217	1230.143	44.711	-474.381	1190.487	64.045	-472.187	1130.757	42.137	-488.067	1059.37	38.719	-485.646	1233.458	722.213	-726.74	1213.427	616.793	-707.695	1152.919	726.506	-758.498	1136.124	620.927	-730.315	1148.335	449.311	-699.97	1162.493	361.709	-697.521	1087.1	372.324	-730.04	1073.263	263.733	-725.51	1097.308	79.156	-690.989	1112.308	101.649	-612.844	1028.42	61.421	-649.769	1055.357	35.02	-691.579	1123.543	37.587	-704.971	1215.658	29.629	-716.044	1290.923	42.084	-657.834	1233.204	42.169	-618.594	1185.661	66.856	-619.011	1137.788	38.428	-606.506	1078.39	40.418	-610.893	1005.721	260.319	-490.314	1002.597	263.171	-453.192	1019.227	230.396	-462.879	1120.484	1394.576	-403.066	1153.36	1386.089	-737.339	1083.243	1423.361	-572.253	1213.653	1347.824	-560.933	1135.305	463.291	-507.08	1132.5	459.435	-597.009	1177.412	854.703	-453.039	1187.372	851.886	-641.273
126	1.25	1224.982	995.514	-432.422	1050.947	1010.071	-500.518	1050.663	992.204	-558.424	1057.403	1007.396	-609.32	1245.397	984.867	-659.7	1254.167	701.879	-417.379	1197.537	701.374	-357.044	1180.646	594.121	-375.642	1147.025	466.681	-388.681	1142.374	354.552	-380.792	1135.985	242.095	-386.93	1059.787	361.11	-378.814	1056.036	247.125	-376.841	1090.732	91.249	-406.838	1104.713	98.82	-480.749	1022.646	65.641	-450.645	1050.986	42.243	-407.043	1122.218	41.595	-389.957	1212.299	35.383	-378.762	1283.332	45.003	-432.239	1230.131	44.671	-474.359	1190.5	63.936	-472.445	1130.777	42.146	-488.072	1059.327	38.716	-485.618	1233.357	722.176	-726.707	1213.75	616.665	-707.543	1152.84	726.5	-758.429	1136.057	620.913	-730.278	1147.797	449.481	-700.064	1162.459	361.695	-697.508	1086.97	372.309	-729.916	1073.208	263.728	-725.558	1097.314	79.189	-691.058	1112.295	101.643	-612.868	1028.405	61.398	-649.808	1055.374	34.974	-691.597	1123.538	37.55	-704.947	1215.645	29.637	-716.031	1290.93	42.079	-657.856	1233.21	42.163	-618.605	1185.689	66.869	-619.022	1137.812	38.402	-606.55	1078.347	40.379	-610.937	1005.695	260.287	-490.312	1002.581	263.157	-453.184	1019.139	230.29	-462.873	1120.326	1394.601	-403.126	1153.263	1386.104	-737.379	1083.114	1423.364	-572.351	1213.548	1347.831	-560.938	1135.265	463.254	-507.054	1132.489	459.436	-596.982	1177.295	854.676	-453.036	1187.241	851.878	-641.27
